Coordinates

Units are S.I. units (second, meters, Newtons, ...)
If the header above contains a line with 'inDegrees', this indicates whether rotational values are in degrees (yes) or radians (no).

inDegrees=no
nColumns=21
nRows=15
DataType=double
version=3
OpenSimVersion=4.6-2026-03-31-d6972f9e6
endheader
time	/jointset/ground_pelvis/pelvis_tilt/value	/jointset/ground_pelvis/pelvis_list/value	/jointset/ground_pelvis/pelvis_rotation/value	/jointset/ground_pelvis/pelvis_tx/value	/jointset/ground_pelvis/pelvis_ty/value	/jointset/ground_pelvis/pelvis_tz/value	/jointset/hip_r/hip_flexion_r/value	/jointset/hip_r/hip_adduction_r/value	/jointset/hip_r/hip_rotation_r/value	/jointset/walker_knee_r/knee_angle_r/value	/jointset/patellofemoral_r/knee_angle_r_beta/value	/jointset/ankle_r/ankle_angle_r/value	/jointset/subtalar_r/subtalar_angle_r/value	/jointset/hip_l/hip_flexion_l/value	/jointset/hip_l/hip_adduction_l/value	/jointset/hip_l/hip_rotation_l/value	/jointset/walker_knee_l/knee_angle_l/value	/jointset/patellofemoral_l/knee_angle_l_beta/value	/jointset/ankle_l/ankle_angle_l/value	/jointset/subtalar_l/subtalar_angle_l/value
144.996	0.03002542979414099	-0.1653904335267651	-0.1431553805481051	1.057358380579747	1.03775542809869	-0.3254527523728075	0.02459104137111596	0.2166737947772428	0.1350955023172514	0.547095715974215	0.547095714831466	0.372225903889343	-0.3102326235251744	0.305574767384721	-0.3142097886942367	-0.01250915243357708	1.345692046170443	1.345692046243366	-0.1225642239197284	-0.5342168337563999
145	0.02804119472557772	-0.1567813381894347	-0.1360338990092216	1.057944726448043	1.039014812408361	-0.3260816884070523	0.008303964304401976	0.2053153551434969	0.1331940152060902	0.5268219759755886	0.5268219747442278	0.3694701998398852	-0.308443755902436	0.3208098774872507	-0.3013342921470633	-0.006105048805206908	1.331254045392609	1.331254045514761	-0.1185302825738865	-0.5393703291695778
145.004	0.02532563965067647	-0.1477874511491354	-0.1285180486024545	1.058604620953846	1.040308596295642	-0.3267218816222581	-0.007539895247342243	0.1938565864943427	0.1310123270797787	0.5057109236540879	0.5057109223626131	0.3647146579456896	-0.3075721266056736	0.3361776398681344	-0.2878957308247869	-0.0001058313424268212	1.31533246955178	1.315332469719746	-0.1147618202540888	-0.5447378922972261
145.008	0.02189704249396356	-0.1384484131645902	-0.1206508643097247	1.059329450193093	1.041633706834652	-0.3273729357685478	-0.02291103577031472	0.182348900082508	0.1285266341205253	0.483923541529624	0.4839235402085763	0.3578815892070388	-0.3075527785249479	0.3515868025941808	-0.2739484012499405	0.005448649741627957	1.297915304839676	1.297915305045363	-0.1112352574011416	-0.5503122278320816
145.012	0.01779567896966555	-0.1287976500100803	-0.1124738641775355	1.06011122304046	1.042989448855652	-0.3280351294206816	-0.03780302450550282	0.1708278145721286	0.1257019141336388	0.4616201797096053	0.4616201783907121	0.348922593942656	-0.3082835780398408	0.3669222227565078	-0.2595361932446926	0.01052680289047868	1.278979440259641	1.278979440491257	-0.1079267926834658	-0.5560729224501375
145.016	0.01308360990279213	-0.1188634631449762	-0.1040277092251279	1.060942672929481	1.044377360818539	-0.3287091975215912	-0.05223199004254575	0.1593151787193907	0.1224931217818574	0.4389595374735597	0.4389595361889268	0.337820887992098	-0.3096280271612208	0.3820457834221321	-0.2446948918292262	0.01510482985345239	1.258492036005699	1.25849203624942	-0.1048125795811881	-0.5619844636521439
145.02	0.007843448299765745	-0.1086705358927663	-0.09535303044780526	1.061817332669317	1.045800961756324	-0.3293961006078239	-0.0662350589660867	0.1478220986596069	0.1188470950886821	0.4160977210168834	0.4160977197983137	0.3245925677058475	-0.3114195807751789	0.3967986407454527	-0.2294550290161695	0.01916633620915825	1.236412621599405	1.236412621841475	-0.1018688730810366	-0.5679943957601844
145.024	0.002176278348695431	-0.0982417380617429	-0.08649124008792311	1.062729583824443	1.047265410389456	-0.3300968062399369	-0.07986791383283412	0.1363523081517288	0.1147049821561967	0.3931873667334129	0.3931873656119285	0.3092867245792504	-0.3134673878891924	0.4110046398218239	-0.2138450016701057	0.02270208961039511	1.212695866255288	1.212695866484035	-0.09907219503524453	-0.5740318365674925
145.028	-0.003801226519637972	-0.08760013162704931	-0.07748525572010471	1.063674677988214	1.048777084337763	-0.3308120958246134	-0.0932014926326756	0.1249057587257268	0.1100050744889706	0.37037690233565	0.3703769013411273	0.2919844726416862	-0.3155631404351935	0.4244748541789214	-0.1978942726022	0.02570989075591444	1.187294988685778	1.187294988893038	-0.0963994617800661	-0.5800064803646479
145.032	-0.009960487828318629	-0.07677108171515185	-0.06838012325867107	1.06464872539973	1.050343082689117	-0.3315424031213455	-0.10631779009107	0.1134822290652081	0.1046859580495428	0.3478100560943318	0.3478100552549802	0.2727970425501153	-0.3174885882876538	0.4370132357045525	-0.1816365206488612	0.02819446728025162	1.160165768648026	1.160165768829641	-0.09382796398533969	-0.5858081432304137
145.036	-0.01616541370722484	-0.06578434991528155	-0.05922348852685132	1.065648648564883	1.051970665745179	-0.3322876924909671	-0.1193048400322434	0.1020847331734075	0.09868982194033209	0.3256256809735447	0.3256256803150375	0.2518631049950681	-0.3190233075802291	0.4484232375976763	-0.165112564301928	0.03016732288672678	1.131271069936264	1.131271070091687	-0.09133513452599411	-0.591306913521388
145.04	-0.0222772854972537	-0.05467603002332125	-0.05006584939849548	1.066672101576953	1.053666658902333	-0.3330473840041411	-0.1322511156566539	0.09072250422604096	0.09196574735852797	0.3039578864484521	0.3039578859927442	0.2293454502180811	-0.3199524087344774	0.4585151161672591	-0.1483728659470308	0.03164647868913621	1.10058572056094	1.100585720692266	-0.08889811448679882	-0.5963540179598568
145.044	-0.02815985732795593	-0.04349018911400897	-0.04096055031254426	1.067717358015461	1.055436855756785	-0.3338203265280703	-0.1452396911847645	0.0794133607457868	0.08447285414869592	0.2829364084842892	0.2829364082482435	0.2054271127962775	-0.3200739626777023	0.467113508668056	-0.1314794562287915	0.03265601775961129	1.068101543446122	1.068101543556938	-0.08649318384235988	-0.6007835516345345
145.048	-0.03368439363194634	-0.03228008791408936	-0.03196350147630302	1.068783171396648	1.057285454812416	-0.3346048158872886	-0.1583425103697841	0.06818530664164896	0.07618319415611624	0.2626871339392383	0.2626871339332186	0.180307038680188	-0.3192059508419053	0.4740648773692674	-0.1145071529458902	0.03322535853076251	1.033832305036026	1.033832305130298	-0.08409513283961428	-0.6044151799138332
145.052	-0.03873442340158306	-0.02110886802368523	-0.02313260779810639	1.069868612931177	1.059214557729756	-0.3353986543975496	-0.1716150423422269	0.05707726482606189	0.06708424659928887	0.2433327126384564	0.2433327128651334	0.154195436736343	-0.3171925240146775	0.47924447090675	-0.09754397330480494	0.03338823712514497	0.9978183437286527	0.9978183438098785	-0.08167663121054175	-0.6070578239801052
